<mxfile host="app.diagrams.net" modified="2021-11-07T15:42:36.534Z" agent="5.0 (Windows NT 10.0; Win64; x64) AppleWebKit/537.36 (KHTML, like Gecko) Chrome/95.0.4638.54 Safari/537.36 Edg/95.0.1020.40" etag="z3fYOlsjEEk3-AxSathm" version="15.7.0" type="github">
  <diagram id="R2lEEEUBdFMjLlhIrx00" name="Page-1">
    <mxGraphModel dx="1715" dy="416" grid="1" gridSize="10" guides="1" tooltips="1" connect="1" arrows="1" fold="1" page="1" pageScale="1" pageWidth="850" pageHeight="1100" math="0" shadow="0" extFonts="Permanent Marker^https://fonts.googleapis.com/css?family=Permanent+Marker">
      <root>
        <mxCell id="0" />
        <mxCell id="1" parent="0" />
        <mxCell id="ZOCcpOMWU3HbiSUcnG7a-57" value="" style="edgeStyle=none;rounded=1;orthogonalLoop=1;jettySize=auto;html=1;endArrow=none;endFill=0;strokeColor=default;startArrow=none;startFill=0;" edge="1" parent="1" source="ZOCcpOMWU3HbiSUcnG7a-1" target="ZOCcpOMWU3HbiSUcnG7a-56">
          <mxGeometry relative="1" as="geometry" />
        </mxCell>
        <mxCell id="ZOCcpOMWU3HbiSUcnG7a-1" value="Users" style="whiteSpace=wrap;html=1;align=center;" vertex="1" parent="1">
          <mxGeometry x="-260" y="220" width="100" height="40" as="geometry" />
        </mxCell>
        <mxCell id="ZOCcpOMWU3HbiSUcnG7a-70" value="" style="edgeStyle=none;rounded=1;orthogonalLoop=1;jettySize=auto;html=1;startArrow=none;startFill=0;endArrow=none;endFill=0;strokeColor=default;" edge="1" parent="1" source="ZOCcpOMWU3HbiSUcnG7a-2" target="ZOCcpOMWU3HbiSUcnG7a-69">
          <mxGeometry relative="1" as="geometry" />
        </mxCell>
        <mxCell id="ZOCcpOMWU3HbiSUcnG7a-2" value="Products" style="whiteSpace=wrap;html=1;align=center;" vertex="1" parent="1">
          <mxGeometry x="155" y="440" width="100" height="40" as="geometry" />
        </mxCell>
        <mxCell id="ZOCcpOMWU3HbiSUcnG7a-3" value="Orders" style="whiteSpace=wrap;html=1;align=center;" vertex="1" parent="1">
          <mxGeometry x="155" y="220" width="100" height="40" as="geometry" />
        </mxCell>
        <mxCell id="ZOCcpOMWU3HbiSUcnG7a-8" value="User_id" style="ellipse;whiteSpace=wrap;html=1;align=center;fontStyle=4" vertex="1" parent="1">
          <mxGeometry x="-375" y="260" width="100" height="40" as="geometry" />
        </mxCell>
        <mxCell id="ZOCcpOMWU3HbiSUcnG7a-9" value="Name" style="ellipse;whiteSpace=wrap;html=1;align=center;" vertex="1" parent="1">
          <mxGeometry x="-390" y="200" width="100" height="40" as="geometry" />
        </mxCell>
        <mxCell id="ZOCcpOMWU3HbiSUcnG7a-10" value="PhoneNumber" style="ellipse;whiteSpace=wrap;html=1;align=center;" vertex="1" parent="1">
          <mxGeometry x="-340" y="150" width="100" height="40" as="geometry" />
        </mxCell>
        <mxCell id="ZOCcpOMWU3HbiSUcnG7a-11" value="Email" style="ellipse;whiteSpace=wrap;html=1;align=center;" vertex="1" parent="1">
          <mxGeometry x="-230" y="140" width="100" height="40" as="geometry" />
        </mxCell>
        <mxCell id="ZOCcpOMWU3HbiSUcnG7a-12" value="Address" style="ellipse;whiteSpace=wrap;html=1;align=center;" vertex="1" parent="1">
          <mxGeometry x="-140" y="180" width="100" height="40" as="geometry" />
        </mxCell>
        <mxCell id="ZOCcpOMWU3HbiSUcnG7a-40" style="edgeStyle=none;orthogonalLoop=1;jettySize=auto;html=1;strokeColor=default;rounded=1;endArrow=none;endFill=0;" edge="1" parent="1" source="ZOCcpOMWU3HbiSUcnG7a-14" target="ZOCcpOMWU3HbiSUcnG7a-2">
          <mxGeometry relative="1" as="geometry" />
        </mxCell>
        <mxCell id="ZOCcpOMWU3HbiSUcnG7a-14" value="Product_id&lt;span style=&quot;color: rgba(0 , 0 , 0 , 0) ; font-family: monospace ; font-size: 0px&quot;&gt;%3CmxGraphModel%3E%3Croot%3E%3CmxCell%20id%3D%220%22%2F%3E%3CmxCell%20id%3D%221%22%20parent%3D%220%22%2F%3E%3CmxCell%20id%3D%222%22%20value%3D%22User_id%22%20style%3D%22ellipse%3BwhiteSpace%3Dwrap%3Bhtml%3D1%3Balign%3Dcenter%3B%22%20vertex%3D%221%22%20parent%3D%221%22%3E%3CmxGeometry%20x%3D%22200%22%20y%3D%2250%22%20width%3D%22100%22%20height%3D%2240%22%20as%3D%22geometry%22%2F%3E%3C%2FmxCell%3E%3C%2Froot%3E%3C%2FmxGraphModel%3E&lt;/span&gt;" style="ellipse;whiteSpace=wrap;html=1;align=center;fontStyle=4" vertex="1" parent="1">
          <mxGeometry x="55" y="500" width="100" height="40" as="geometry" />
        </mxCell>
        <mxCell id="ZOCcpOMWU3HbiSUcnG7a-41" style="edgeStyle=none;rounded=1;orthogonalLoop=1;jettySize=auto;html=1;endArrow=none;endFill=0;strokeColor=default;" edge="1" parent="1" source="ZOCcpOMWU3HbiSUcnG7a-15" target="ZOCcpOMWU3HbiSUcnG7a-2">
          <mxGeometry relative="1" as="geometry" />
        </mxCell>
        <mxCell id="ZOCcpOMWU3HbiSUcnG7a-15" value="Name" style="ellipse;whiteSpace=wrap;html=1;align=center;" vertex="1" parent="1">
          <mxGeometry x="170" y="520" width="100" height="40" as="geometry" />
        </mxCell>
        <mxCell id="ZOCcpOMWU3HbiSUcnG7a-43" style="edgeStyle=none;rounded=1;orthogonalLoop=1;jettySize=auto;html=1;endArrow=none;endFill=0;strokeColor=default;" edge="1" parent="1" source="ZOCcpOMWU3HbiSUcnG7a-16" target="ZOCcpOMWU3HbiSUcnG7a-2">
          <mxGeometry relative="1" as="geometry">
            <mxPoint x="220" y="515" as="targetPoint" />
          </mxGeometry>
        </mxCell>
        <mxCell id="ZOCcpOMWU3HbiSUcnG7a-16" value="Desciption" style="ellipse;whiteSpace=wrap;html=1;align=center;" vertex="1" parent="1">
          <mxGeometry x="280" y="510" width="100" height="40" as="geometry" />
        </mxCell>
        <mxCell id="ZOCcpOMWU3HbiSUcnG7a-44" style="edgeStyle=none;rounded=1;orthogonalLoop=1;jettySize=auto;html=1;endArrow=none;endFill=0;strokeColor=default;" edge="1" parent="1" source="ZOCcpOMWU3HbiSUcnG7a-17" target="ZOCcpOMWU3HbiSUcnG7a-2">
          <mxGeometry relative="1" as="geometry" />
        </mxCell>
        <mxCell id="ZOCcpOMWU3HbiSUcnG7a-17" value="Quantity" style="ellipse;whiteSpace=wrap;html=1;align=center;" vertex="1" parent="1">
          <mxGeometry x="280" y="440" width="100" height="40" as="geometry" />
        </mxCell>
        <mxCell id="ZOCcpOMWU3HbiSUcnG7a-45" style="edgeStyle=none;rounded=1;orthogonalLoop=1;jettySize=auto;html=1;endArrow=none;endFill=0;strokeColor=default;" edge="1" parent="1" source="ZOCcpOMWU3HbiSUcnG7a-18" target="ZOCcpOMWU3HbiSUcnG7a-3">
          <mxGeometry relative="1" as="geometry">
            <mxPoint x="150" y="220" as="targetPoint" />
          </mxGeometry>
        </mxCell>
        <mxCell id="ZOCcpOMWU3HbiSUcnG7a-18" value="Order_id" style="ellipse;whiteSpace=wrap;html=1;align=center;fontStyle=4" vertex="1" parent="1">
          <mxGeometry x="55" y="180" width="100" height="40" as="geometry" />
        </mxCell>
        <mxCell id="ZOCcpOMWU3HbiSUcnG7a-48" style="edgeStyle=none;rounded=1;orthogonalLoop=1;jettySize=auto;html=1;endArrow=none;endFill=0;strokeColor=default;" edge="1" parent="1" source="ZOCcpOMWU3HbiSUcnG7a-21" target="ZOCcpOMWU3HbiSUcnG7a-3">
          <mxGeometry relative="1" as="geometry" />
        </mxCell>
        <mxCell id="ZOCcpOMWU3HbiSUcnG7a-21" value="Quantity" style="ellipse;whiteSpace=wrap;html=1;align=center;" vertex="1" parent="1">
          <mxGeometry x="170" y="160" width="100" height="40" as="geometry" />
        </mxCell>
        <mxCell id="ZOCcpOMWU3HbiSUcnG7a-49" style="edgeStyle=none;rounded=1;orthogonalLoop=1;jettySize=auto;html=1;endArrow=none;endFill=0;strokeColor=default;" edge="1" parent="1" source="ZOCcpOMWU3HbiSUcnG7a-22" target="ZOCcpOMWU3HbiSUcnG7a-3">
          <mxGeometry relative="1" as="geometry" />
        </mxCell>
        <mxCell id="ZOCcpOMWU3HbiSUcnG7a-22" value="Status" style="ellipse;whiteSpace=wrap;html=1;align=center;" vertex="1" parent="1">
          <mxGeometry x="270" y="200" width="100" height="40" as="geometry" />
        </mxCell>
        <mxCell id="ZOCcpOMWU3HbiSUcnG7a-54" style="edgeStyle=none;rounded=1;orthogonalLoop=1;jettySize=auto;html=1;endArrow=none;endFill=0;strokeColor=default;" edge="1" parent="1" source="ZOCcpOMWU3HbiSUcnG7a-25" target="ZOCcpOMWU3HbiSUcnG7a-79">
          <mxGeometry relative="1" as="geometry">
            <mxPoint x="-350" y="540" as="targetPoint" />
          </mxGeometry>
        </mxCell>
        <mxCell id="ZOCcpOMWU3HbiSUcnG7a-25" value="Content" style="ellipse;whiteSpace=wrap;html=1;align=center;" vertex="1" parent="1">
          <mxGeometry x="-375" y="490" width="100" height="40" as="geometry" />
        </mxCell>
        <mxCell id="ZOCcpOMWU3HbiSUcnG7a-35" value="" style="endArrow=none;html=1;" edge="1" parent="1" source="ZOCcpOMWU3HbiSUcnG7a-1" target="ZOCcpOMWU3HbiSUcnG7a-10">
          <mxGeometry width="50" height="50" relative="1" as="geometry">
            <mxPoint x="-160" y="240" as="sourcePoint" />
            <mxPoint x="-110" y="190" as="targetPoint" />
          </mxGeometry>
        </mxCell>
        <mxCell id="ZOCcpOMWU3HbiSUcnG7a-36" value="" style="endArrow=none;html=1;curved=1;" edge="1" parent="1" source="ZOCcpOMWU3HbiSUcnG7a-1" target="ZOCcpOMWU3HbiSUcnG7a-9">
          <mxGeometry width="50" height="50" relative="1" as="geometry">
            <mxPoint x="-160" y="240" as="sourcePoint" />
            <mxPoint x="-110" y="190" as="targetPoint" />
          </mxGeometry>
        </mxCell>
        <mxCell id="ZOCcpOMWU3HbiSUcnG7a-37" value="" style="endArrow=none;html=1;curved=1;" edge="1" parent="1" source="ZOCcpOMWU3HbiSUcnG7a-1" target="ZOCcpOMWU3HbiSUcnG7a-8">
          <mxGeometry width="50" height="50" relative="1" as="geometry">
            <mxPoint x="-160" y="240" as="sourcePoint" />
            <mxPoint x="-110" y="190" as="targetPoint" />
          </mxGeometry>
        </mxCell>
        <mxCell id="ZOCcpOMWU3HbiSUcnG7a-38" value="" style="endArrow=none;html=1;curved=1;" edge="1" parent="1" source="ZOCcpOMWU3HbiSUcnG7a-1" target="ZOCcpOMWU3HbiSUcnG7a-11">
          <mxGeometry width="50" height="50" relative="1" as="geometry">
            <mxPoint x="-160" y="240" as="sourcePoint" />
            <mxPoint x="-110" y="190" as="targetPoint" />
          </mxGeometry>
        </mxCell>
        <mxCell id="ZOCcpOMWU3HbiSUcnG7a-39" value="" style="endArrow=none;html=1;curved=1;" edge="1" parent="1" source="ZOCcpOMWU3HbiSUcnG7a-1" target="ZOCcpOMWU3HbiSUcnG7a-12">
          <mxGeometry width="50" height="50" relative="1" as="geometry">
            <mxPoint x="-160" y="240" as="sourcePoint" />
            <mxPoint x="-110" y="190" as="targetPoint" />
          </mxGeometry>
        </mxCell>
        <mxCell id="ZOCcpOMWU3HbiSUcnG7a-42" style="edgeStyle=none;rounded=1;orthogonalLoop=1;jettySize=auto;html=1;exitX=0.5;exitY=1;exitDx=0;exitDy=0;entryX=0.25;entryY=1;entryDx=0;entryDy=0;endArrow=none;endFill=0;strokeColor=default;" edge="1" parent="1" source="ZOCcpOMWU3HbiSUcnG7a-2" target="ZOCcpOMWU3HbiSUcnG7a-2">
          <mxGeometry relative="1" as="geometry" />
        </mxCell>
        <mxCell id="ZOCcpOMWU3HbiSUcnG7a-58" style="edgeStyle=none;rounded=1;orthogonalLoop=1;jettySize=auto;html=1;endArrow=ERoneToMany;endFill=0;strokeColor=default;" edge="1" parent="1" source="ZOCcpOMWU3HbiSUcnG7a-56" target="ZOCcpOMWU3HbiSUcnG7a-3">
          <mxGeometry relative="1" as="geometry" />
        </mxCell>
        <mxCell id="ZOCcpOMWU3HbiSUcnG7a-56" value="Has" style="rhombus;whiteSpace=wrap;html=1;" vertex="1" parent="1">
          <mxGeometry x="-40" y="200" width="80" height="80" as="geometry" />
        </mxCell>
        <mxCell id="ZOCcpOMWU3HbiSUcnG7a-65" style="edgeStyle=none;rounded=1;orthogonalLoop=1;jettySize=auto;html=1;startArrow=none;startFill=0;endArrow=none;endFill=0;strokeColor=default;" edge="1" parent="1" source="ZOCcpOMWU3HbiSUcnG7a-64" target="ZOCcpOMWU3HbiSUcnG7a-3">
          <mxGeometry relative="1" as="geometry" />
        </mxCell>
        <mxCell id="ZOCcpOMWU3HbiSUcnG7a-64" value="Created_at" style="ellipse;whiteSpace=wrap;html=1;align=center;" vertex="1" parent="1">
          <mxGeometry x="290" y="250" width="100" height="40" as="geometry" />
        </mxCell>
        <mxCell id="ZOCcpOMWU3HbiSUcnG7a-68" style="edgeStyle=none;rounded=1;orthogonalLoop=1;jettySize=auto;html=1;startArrow=none;startFill=0;endArrow=none;endFill=0;strokeColor=default;" edge="1" parent="1" source="ZOCcpOMWU3HbiSUcnG7a-67" target="ZOCcpOMWU3HbiSUcnG7a-2">
          <mxGeometry relative="1" as="geometry" />
        </mxCell>
        <mxCell id="ZOCcpOMWU3HbiSUcnG7a-67" value="Image" style="ellipse;shape=doubleEllipse;margin=3;whiteSpace=wrap;html=1;align=center;" vertex="1" parent="1">
          <mxGeometry x="270" y="380" width="100" height="40" as="geometry" />
        </mxCell>
        <mxCell id="ZOCcpOMWU3HbiSUcnG7a-71" style="edgeStyle=none;rounded=1;orthogonalLoop=1;jettySize=auto;html=1;startArrow=none;startFill=0;endArrow=ERoneToMany;endFill=0;strokeColor=default;" edge="1" parent="1" source="ZOCcpOMWU3HbiSUcnG7a-69" target="ZOCcpOMWU3HbiSUcnG7a-3">
          <mxGeometry relative="1" as="geometry" />
        </mxCell>
        <mxCell id="ZOCcpOMWU3HbiSUcnG7a-69" value="In" style="rhombus;whiteSpace=wrap;html=1;" vertex="1" parent="1">
          <mxGeometry x="165" y="330" width="80" height="80" as="geometry" />
        </mxCell>
        <mxCell id="ZOCcpOMWU3HbiSUcnG7a-77" style="edgeStyle=none;rounded=1;orthogonalLoop=1;jettySize=auto;html=1;exitX=0.5;exitY=1;exitDx=0;exitDy=0;startArrow=none;startFill=0;endArrow=none;endFill=0;strokeColor=default;" edge="1" parent="1" source="ZOCcpOMWU3HbiSUcnG7a-21" target="ZOCcpOMWU3HbiSUcnG7a-21">
          <mxGeometry relative="1" as="geometry" />
        </mxCell>
        <mxCell id="ZOCcpOMWU3HbiSUcnG7a-83" value="" style="edgeStyle=none;rounded=1;orthogonalLoop=1;jettySize=auto;html=1;startArrow=ERoneToMany;startFill=0;endArrow=none;endFill=0;strokeColor=default;" edge="1" parent="1" source="ZOCcpOMWU3HbiSUcnG7a-79" target="ZOCcpOMWU3HbiSUcnG7a-98">
          <mxGeometry relative="1" as="geometry">
            <mxPoint x="-50" y="460" as="targetPoint" />
          </mxGeometry>
        </mxCell>
        <mxCell id="ZOCcpOMWU3HbiSUcnG7a-79" value="Comments" style="shape=ext;margin=3;double=1;whiteSpace=wrap;html=1;align=center;direction=west;" vertex="1" parent="1">
          <mxGeometry x="-260" y="440" width="100" height="40" as="geometry" />
        </mxCell>
        <mxCell id="ZOCcpOMWU3HbiSUcnG7a-84" style="edgeStyle=none;rounded=1;orthogonalLoop=1;jettySize=auto;html=1;startArrow=none;startFill=0;endArrow=none;endFill=0;strokeColor=default;" edge="1" parent="1" source="ZOCcpOMWU3HbiSUcnG7a-98" target="ZOCcpOMWU3HbiSUcnG7a-2">
          <mxGeometry relative="1" as="geometry">
            <mxPoint x="30" y="460" as="sourcePoint" />
          </mxGeometry>
        </mxCell>
        <mxCell id="ZOCcpOMWU3HbiSUcnG7a-94" style="edgeStyle=none;rounded=1;orthogonalLoop=1;jettySize=auto;html=1;startArrow=none;startFill=0;endArrow=none;endFill=0;strokeColor=default;" edge="1" parent="1" source="ZOCcpOMWU3HbiSUcnG7a-93" target="ZOCcpOMWU3HbiSUcnG7a-1">
          <mxGeometry relative="1" as="geometry" />
        </mxCell>
        <mxCell id="ZOCcpOMWU3HbiSUcnG7a-95" style="edgeStyle=none;rounded=1;orthogonalLoop=1;jettySize=auto;html=1;startArrow=none;startFill=0;endArrow=ERoneToMany;endFill=0;strokeColor=default;" edge="1" parent="1" source="ZOCcpOMWU3HbiSUcnG7a-93" target="ZOCcpOMWU3HbiSUcnG7a-79">
          <mxGeometry relative="1" as="geometry" />
        </mxCell>
        <mxCell id="ZOCcpOMWU3HbiSUcnG7a-93" value="Has" style="shape=rhombus;double=1;perimeter=rhombusPerimeter;whiteSpace=wrap;html=1;align=center;" vertex="1" parent="1">
          <mxGeometry x="-250" y="310" width="80" height="80" as="geometry" />
        </mxCell>
        <mxCell id="ZOCcpOMWU3HbiSUcnG7a-98" value="In" style="shape=rhombus;double=1;perimeter=rhombusPerimeter;whiteSpace=wrap;html=1;align=center;" vertex="1" parent="1">
          <mxGeometry x="-40" y="420" width="80" height="80" as="geometry" />
        </mxCell>
      </root>
    </mxGraphModel>
  </diagram>
</mxfile>
